<svg xmlns="http://www.w3.org/2000/svg" data-name="Layer 1" viewBox="0 0 128 128"><path d="M42 56h10v30H42z"/><circle cx="47" cy="46" r="6"/><path d="M76 56c-5.52 0-10 2-10 7v-7H56v30h10V70c0-1.66 1-7 5-7 2.76 0 5 1.34 5 3v20h10V66a10 10 0 0 0-10-10Z"/><path d="M111.16 25.23 74 3.77a20 20 0 0 0-20 0L16.84 25.23a20 20 0 0 0-10 17.32v42.9a20 20 0 0 0 10 17.32L54 124.23a20 20 0 0 0 20 0l37.16-21.45a20 20 0 0 0 10-17.32V42.55a20 20 0 0 0-10-17.32ZM96 92a4 4 0 0 1-4 4H36a4 4 0 0 1-4-4V36a4 4 0 0 1 4-4h56a4 4 0 0 1 4 4Z"/></svg>